<svg width="800" height="601" viewBox="0 0 800 601" fill="none" xmlns="http://www.w3.org/2000/svg">
<path d="M554.363 118.434C542.031 100.464 521.192 87.6221 498.889 89.1506C488.422 89.8263 478.373 93.5103 469.95 99.7599C461.625 106.201 455.556 115.114 452.612 125.219C448.891 137.27 448.765 150.137 449.469 162.621C449.58 164.569 452.628 164.689 452.516 162.728C451.395 142.834 452.499 120.076 467.936 105.445C483.036 91.1335 505.998 88.593 524.642 96.9732C535.565 101.992 544.906 109.903 551.656 119.849C552.754 121.451 555.468 120.053 554.36 118.437L554.363 118.434Z" fill="#949191"/>
<path d="M550.233 97.8211L554.03 122.397L555.956 120.601C549.954 118.011 543.3 117.331 536.898 118.652C534.97 119.046 535.646 122.019 537.567 121.628C543.46 120.437 549.577 121.098 555.08 123.523C556.216 124.018 557.161 122.729 557.005 121.727L553.21 97.1496C552.91 95.2061 549.936 95.8897 550.233 97.8211Z" fill="#949191"/>
<path d="M428.397 181.006H333.905C325.068 181.006 317.905 188.169 317.905 197.006V291.498C317.905 300.335 325.068 307.498 333.905 307.498H428.397C437.234 307.498 444.397 300.335 444.397 291.498V197.006C444.397 188.169 437.234 181.006 428.397 181.006Z" fill="#CEFCFF"/>
<path d="M404.285 233.816C404.285 235.489 404.135 237.159 403.837 238.805C403.298 240.909 402.483 242.933 401.411 244.822C399.359 248.467 397.158 249.829 395.349 253.398C395.038 253.639 394.718 253.855 394.393 254.067C393.743 254.486 393.672 256.539 392.982 256.893C392.982 256.893 392.972 256.893 392.968 256.903C392.756 257.264 392.634 257.671 392.612 258.09V258.1C392.264 260.14 391.962 264.288 391.612 266.742C391.565 267.042 391.522 267.312 391.476 267.552C391.358 268.202 391.236 268.617 391.099 268.668C389.417 269.318 388.699 268.427 386.859 268.668C385.87 268.8 380.821 269.61 379.794 269.61C376.879 269.61 375.301 268.617 372.942 267.552C372.777 267.481 372.612 267.406 372.442 267.331C372.378 267.307 372.325 267.279 372.264 267.256C371.587 266.969 370.946 259.725 370.31 256.984C370.309 256.982 370.308 256.979 370.308 256.977C370.308 256.975 370.309 256.972 370.31 256.97C370.178 256.4 370.046 256.028 369.91 255.953L369.81 255.897C369.391 255.656 368.981 255.397 368.58 255.12C366.154 251.079 361.468 247.234 359.154 240.949C358.489 238.629 358.145 236.229 358.13 233.816C358.13 227.695 360.561 221.826 364.889 217.498C369.217 213.17 375.087 210.738 381.207 210.738C387.328 210.738 393.198 213.17 397.526 217.498C401.854 221.826 404.285 227.695 404.285 233.816Z" fill="#009EA7"/>
<path d="M403.832 238.809C403.293 240.913 402.477 242.935 401.406 244.824C399.354 248.469 397.153 249.831 395.344 253.4C394.144 255.778 393.115 259.137 392.415 264.8C392.373 265.134 392.462 265.516 392.415 265.845C392.308 266.575 392.439 266.445 391.996 267.103C391.796 267.216 391.671 267.056 391.604 266.747C391.5 265.963 391.49 265.169 391.576 264.383C391.703 262.261 392.047 260.157 392.602 258.105V258.095C392.715 257.685 392.838 257.289 392.958 256.908C395.139 250.267 399.158 247.258 400.983 243.782C410.558 225.563 392.865 205.233 373.377 212.301C372.332 212.683 372.388 212.901 372.332 212.932C370.91 213.413 369.543 214.042 368.254 214.811C359.619 220.686 356.52 232.311 360.415 241.893C362.524 247.078 366.943 250.003 369.801 255.893C369.972 256.235 370.137 256.593 370.296 256.967C370.295 256.969 370.294 256.972 370.294 256.974C370.294 256.976 370.295 256.979 370.296 256.981C371.641 260.27 372.366 263.78 372.433 267.333C372.433 267.397 372.443 267.456 372.443 267.517C372.612 267.531 372.777 267.541 372.938 267.555C375.438 267.772 377.059 268.172 377.898 267.738L378.821 267.832C379.127 268.26 384.273 267.738 385.094 267.732H385.306C387.362 267.784 389.42 267.726 391.47 267.557C391.57 267.547 391.682 267.533 391.786 267.519C391.923 267.551 392.043 267.634 392.121 267.751C392.199 267.868 392.229 268.011 392.205 268.15C392.036 269.088 391.601 269.958 390.953 270.656C389.988 271.221 374.253 271.508 372.753 270.449C372.315 270.143 371.994 269.697 371.842 269.184C371.691 268.671 371.718 268.122 371.919 267.627C371.891 267.495 371.313 267.119 371.288 266.996C371.006 265.396 371.34 261.331 369.409 256.748C369.17 256.187 368.89 255.644 368.571 255.124C366.145 251.078 361.46 247.233 359.147 240.944C357.934 237.568 357.509 233.959 357.906 230.393C358.739 221.539 366.377 212.827 374.948 210.627C392.886 206.021 408.033 222.288 403.832 238.809Z" fill="#010001"/>
<path d="M391.181 271.139C392.674 272.559 391.881 273.039 391.181 274.695C390.304 274.495 375.286 275.458 373.194 274.695C372.859 274.56 372.565 274.341 372.338 274.061C372.111 273.78 371.958 273.446 371.896 273.091C371.833 272.736 371.861 272.37 371.978 272.029C372.095 271.687 372.297 271.381 372.565 271.139C378.751 271.83 384.995 271.83 391.181 271.139Z" fill="#010001"/>
<path d="M392.018 275.322C392.606 276.628 391.481 277.43 390.972 278.459L389.923 278.669L373.403 278.46C372.408 278.268 371.777 276.875 371.523 275.95C371.505 275.826 371.525 275.7 371.581 275.587C371.637 275.475 371.725 275.383 371.835 275.322L373.194 274.904C378.655 275.346 384.136 275.485 389.613 275.322C389.978 275.109 390.393 274.997 390.815 274.997C391.238 274.997 391.653 275.109 392.018 275.322Z" fill="#010001"/>
<path d="M378.456 258.305H378.023V251.226L370.037 234.311L370.429 234.126L378.456 251.126V258.305Z" fill="white"/>
<path d="M385.206 258.317L384.85 250.446L384.858 250.416L389.097 232.99L389.518 233.09L385.286 250.49L385.638 258.299L385.206 258.317Z" fill="white"/>
<path d="M240.079 452.777C310.803 452.777 254.266 499.295 260.479 514.35C263.885 522.597 340.269 481.226 340.269 514.35C340.269 557.33 318.444 577.135 283.519 586.122C244.788 596.089 189.593 592.392 130.86 592.392C19.833 592.392 -0.00100708 622.607 -0.00100708 531.355C-0.00100708 508.998 13.899 468.511 26.771 459.168C65.886 430.775 156.255 452.777 240.079 452.777Z" fill="#CEFCFF"/>
<path d="M98.197 328.78L103.73 355.953L130.816 401.477L164.216 387.21C164.216 387.21 209.605 339.649 181.084 332.853C177.667 332.123 174.441 330.686 171.613 328.633C166.007 324.413 164.252 318.267 164.252 312.256C164.252 302.331 168.889 292.763 168.889 292.763L110.459 274.363C112.874 282.041 114.286 289.999 114.659 298.039C115.101 313.987 109.188 321.788 104.342 325.53C102.528 327.009 100.439 328.114 98.196 328.781L98.197 328.78Z" fill="#ED9DA0"/>
<path d="M103.729 266.952C103.777 277.586 107.509 287.876 114.289 296.069C121.069 304.262 130.478 309.853 140.916 311.89C151.353 313.928 162.175 312.286 171.538 307.244C180.901 302.202 188.228 294.071 192.273 284.235C196.317 274.4 196.828 263.467 193.72 253.297C190.611 243.126 184.075 234.347 175.223 228.453C166.371 222.559 155.75 219.915 145.168 220.969C134.586 222.023 124.696 226.711 117.181 234.236C112.891 238.532 109.493 243.634 107.184 249.249C104.876 254.864 103.701 260.881 103.729 266.952Z" fill="#ED9DA0"/>
<path d="M155.498 373.616C155.498 373.616 179.392 340.494 170.39 327.626L210.762 344.175C210.762 344.175 235.062 341.23 243.884 377.493C245.292 383.518 245.8 389.719 245.393 395.893C245.071 401.364 245.81 410.993 252.041 423.445C262.017 443.379 259.741 489.125 239.356 493.663C218.971 498.201 211.73 495.921 211.73 495.921C211.73 495.921 214.441 578.821 226.218 588.331C237.995 597.841 196.273 599.373 196.273 599.373L141.513 600.108L70.476 595.352C70.476 595.352 78.557 555.713 81.268 533.521C83.979 511.329 90.333 464.063 90.333 464.063L44.122 401.499C44.122 401.499 35.976 363.679 64.51 346.921C93.044 330.163 103.766 326.069 103.766 326.069C103.766 326.069 132.398 372.685 147.339 374.979C147.339 374.979 153.02 377.261 155.498 373.616Z" fill="#009EA7"/>
<path opacity="0.1" d="M208.492 386.756C208.492 386.756 208.946 401.71 206.235 407.611C203.524 413.512 193.55 446.118 193.55 446.118H216.196C216.196 446.118 203.929 432.979 204.873 426.637C205.817 420.295 208.492 386.756 208.492 386.756Z" fill="black"/>
<path d="M141.452 499.554C141.452 499.554 191.478 487.287 196.14 476.896C200.802 466.505 213.67 443.17 213.67 443.17L208.395 436.055L184.057 455.155C184.057 455.155 155.07 478.255 141.477 480.524C127.884 482.793 141.452 499.554 141.452 499.554Z" fill="#ED9DA0"/>
<path opacity="0.05" d="M141.452 499.554C141.452 499.554 191.478 487.287 196.14 476.896C200.802 466.505 213.67 443.17 213.67 443.17L208.395 436.055L184.057 455.155C184.057 455.155 155.07 478.255 141.477 480.524C127.884 482.793 141.452 499.554 141.452 499.554Z" fill="black"/>
<path d="M98.197 440.671V467.808H102.564C124.101 467.81 145.284 473.291 164.12 483.735L172.328 488.295L174.528 489.522L188.574 457.896L175.436 446.118H174.761C171.547 446.425 157.648 447.59 151.761 445.603C146.167 443.703 139.223 437.678 122.749 441.923C114.628 443.996 107.697 453.099 99.82 450.253L98.197 440.671Z" fill="#ED9DA0"/>
<path d="M53.127 391.294L44.062 401.476V426.171C44.062 426.171 51.741 504.081 76.276 512.693C100.811 521.305 144.409 507.7 144.409 507.7C144.409 507.7 155.683 477.8 150.409 476C145.135 474.2 103.793 463.266 103.793 463.266C103.793 463.266 104.382 417.557 95.316 403.966C95.316 403.966 101.204 361.398 80.816 360.491C60.428 359.584 53.127 391.294 53.127 391.294Z" fill="#009EA7"/>
<path opacity="0.1" d="M169.764 385.627L155.583 443.897C155.583 443.897 144.395 443.834 169.764 385.627Z" fill="black"/>
<path opacity="0.1" d="M121.296 375.887C121.296 375.887 139.869 406.31 132.619 437.754L129.16 438.011C129.16 438.011 135.345 423.448 121.296 375.887Z" fill="black"/>
<path d="M175.432 446.105C175.432 446.105 179.959 477.805 171.752 490.489C171.752 490.489 188.338 497.289 211.621 495.924L227.47 446.106L175.432 446.105Z" fill="#009EA7"/>
<path d="M140.925 272.904C146.299 273.604 150.353 268.104 152.232 263.022C154.111 257.94 155.543 252.022 160.216 249.276C166.599 245.525 174.766 250.036 182.065 248.799C190.315 247.399 195.665 238.662 196.091 230.316C196.517 221.97 193.191 213.934 189.928 206.234L188.79 215.808C188.942 212.565 188.26 209.337 186.809 206.433C185.357 203.529 183.185 201.047 180.5 199.222L181.961 213.261C181.65 211.324 180.959 209.467 179.928 207.797C178.897 206.127 177.546 204.678 175.954 203.531C174.361 202.385 172.558 201.564 170.647 201.117C168.736 200.67 166.756 200.604 164.82 200.924L165.051 209.291C155.529 208.158 145.925 207.025 136.376 207.891C126.827 208.757 117.211 211.774 109.976 218.064C99.15 227.471 95.196 242.964 96.522 257.25C97.848 271.536 103.74 284.945 109.889 297.909C111.434 301.171 113.572 304.849 117.157 305.265C120.375 305.637 123.325 302.946 124.327 299.859C125.099 296.695 125.069 293.388 124.24 290.238C123.334 285.424 122.194 280.503 123.04 275.682C123.886 270.861 127.362 266.092 132.224 265.501C137.086 264.91 142.062 270.468 139.724 274.771L140.925 272.904Z" fill="#090814"/>
<path d="M534.799 198.414H509.212C508.665 198.415 508.125 198.293 507.633 198.055C507.14 197.818 506.708 197.472 506.368 197.044C506.032 196.627 505.796 196.139 505.675 195.617C505.555 195.095 505.555 194.553 505.674 194.031C508.111 183.278 507.958 172.101 505.227 161.419C505.054 160.716 505.096 159.977 505.347 159.298C505.598 158.618 506.046 158.029 506.634 157.607C519.791 148.145 530.152 148.419 537.434 158.425C537.762 158.881 537.98 159.407 538.071 159.961C540.016 171.652 540.123 183.576 538.39 195.3C538.27 196.165 537.84 196.958 537.18 197.531C536.52 198.103 535.675 198.418 534.801 198.415L534.799 198.414Z" fill="#0F494C"/>
<path d="M526.865 172.791H518.065C517.578 172.791 517.112 172.598 516.767 172.254C516.423 171.909 516.23 171.443 516.23 170.956C516.23 170.469 516.423 170.003 516.767 169.658C517.112 169.314 517.578 169.121 518.065 169.121H526.865C527.352 169.121 527.818 169.314 528.163 169.658C528.507 170.003 528.7 170.469 528.7 170.956C528.7 171.443 528.507 171.909 528.163 172.254C527.818 172.598 527.352 172.791 526.865 172.791Z" fill="white"/>
<path d="M526.865 179.227H518.065C517.578 179.227 517.112 179.034 516.767 178.69C516.423 178.345 516.23 177.879 516.23 177.392C516.23 176.905 516.423 176.439 516.767 176.094C517.112 175.75 517.578 175.557 518.065 175.557H526.865C527.352 175.557 527.818 175.75 528.163 176.094C528.507 176.439 528.7 176.905 528.7 177.392C528.7 177.879 528.507 178.345 528.163 178.69C527.818 179.034 527.352 179.227 526.865 179.227Z" fill="white"/>
<path d="M526.865 185.663H518.065C517.578 185.663 517.112 185.47 516.767 185.126C516.423 184.781 516.23 184.315 516.23 183.828C516.23 183.341 516.423 182.875 516.767 182.53C517.112 182.186 517.578 181.993 518.065 181.993H526.865C527.352 181.993 527.818 182.186 528.163 182.53C528.507 182.875 528.7 183.341 528.7 183.828C528.7 184.315 528.507 184.781 528.163 185.126C527.818 185.47 527.352 185.663 526.865 185.663Z" fill="white"/>
<path d="M778.601 254.338H696.813C694.621 254.336 692.519 253.464 690.969 251.914C689.419 250.364 688.547 248.262 688.545 246.07V195.694C688.547 193.502 689.419 191.4 690.969 189.85C692.519 188.3 694.621 187.428 696.813 187.426H778.604C780.796 187.428 782.898 188.3 784.448 189.85C785.998 191.4 786.87 193.502 786.872 195.694V246.07C786.87 248.262 785.998 250.364 784.448 251.914C782.898 253.464 780.796 254.336 778.604 254.338H778.601Z" fill="#949191"/>
<path d="M746.104 247.849H702.559C700.506 247.847 698.538 247.03 697.086 245.579C695.634 244.127 694.817 242.159 694.815 240.106V201.658C694.817 199.605 695.634 197.637 697.086 196.186C698.537 194.734 700.505 193.917 702.558 193.915H772.851C774.904 193.917 776.872 194.734 778.324 196.186C779.775 197.637 780.592 199.605 780.594 201.658V213.358C780.584 222.502 776.947 231.269 770.481 237.735C764.015 244.201 755.248 247.838 746.104 247.849Z" fill="white"/>
<path d="M765.84 214.968H709.572C709.085 214.968 708.619 214.775 708.275 214.431C707.93 214.086 707.737 213.62 707.737 213.133C707.737 212.646 707.93 212.18 708.275 211.835C708.619 211.491 709.085 211.298 709.572 211.298H765.84C766.327 211.298 766.793 211.491 767.138 211.835C767.482 212.18 767.675 212.646 767.675 213.133C767.675 213.62 767.482 214.086 767.138 214.431C766.793 214.775 766.327 214.968 765.84 214.968Z" fill="#009EA7"/>
<path d="M718.374 222.219H709.574C709.087 222.219 708.621 222.026 708.276 221.682C707.932 221.337 707.739 220.871 707.739 220.384C707.739 219.897 707.932 219.431 708.276 219.086C708.621 218.742 709.087 218.549 709.574 218.549H718.374C718.861 218.549 719.327 218.742 719.672 219.086C720.016 219.431 720.209 219.897 720.209 220.384C720.209 220.871 720.016 221.337 719.672 221.682C719.327 222.026 718.861 222.219 718.374 222.219Z" fill="#009EA7"/>
<path d="M733.963 229.471H709.572C709.085 229.471 708.619 229.278 708.275 228.934C707.93 228.589 707.737 228.123 707.737 227.636C707.737 227.149 707.93 226.683 708.275 226.338C708.619 225.994 709.085 225.801 709.572 225.801H733.963C734.45 225.801 734.916 225.994 735.261 226.338C735.605 226.683 735.798 227.149 735.798 227.636C735.798 228.123 735.605 228.589 735.261 228.934C734.916 229.278 734.45 229.471 733.963 229.471Z" fill="#009EA7"/>
<path d="M688.542 203.186C694.667 203.186 699.632 198.221 699.632 192.096C699.632 185.971 694.667 181.006 688.542 181.006C682.417 181.006 677.452 185.971 677.452 192.096C677.452 198.221 682.417 203.186 688.542 203.186Z" fill="#090814"/>
<path d="M792.565 70.493H719.019C717.048 70.4906 715.159 69.7066 713.765 68.313C712.371 66.9194 711.587 65.0299 711.585 63.059V17.758C711.587 15.7871 712.371 13.8976 713.765 12.504C715.159 11.1104 717.048 10.3264 719.019 10.324H792.564C794.535 10.3264 796.424 11.1104 797.818 12.504C799.212 13.8976 799.996 15.7871 799.998 17.758V63.058C799.996 65.0289 799.212 66.9185 797.819 68.3123C796.425 69.7061 794.536 70.4903 792.565 70.493Z" fill="#949191"/>
<path d="M763.344 64.658H724.189C722.343 64.6559 720.573 63.9217 719.268 62.6166C717.963 61.3114 717.228 59.5419 717.226 57.696V23.127C717.228 21.281 717.962 19.5113 719.268 18.2061C720.573 16.9009 722.343 16.1668 724.189 16.165H787.395C789.241 16.1668 791.011 16.9009 792.316 18.2061C793.622 19.5113 794.356 21.281 794.358 23.127V33.648C794.349 41.8703 791.078 49.7532 785.264 55.5672C779.45 61.3813 771.567 64.6517 763.345 64.661L763.344 64.658Z" fill="white"/>
<path d="M781.09 35.093H730.49C730.052 35.093 729.633 34.9192 729.323 34.6097C729.014 34.3003 728.84 33.8806 728.84 33.443C728.84 33.0054 729.014 32.5857 729.323 32.2763C729.633 31.9668 730.052 31.793 730.49 31.793H781.09C781.528 31.793 781.947 31.9668 782.257 32.2763C782.566 32.5857 782.74 33.0054 782.74 33.443C782.74 33.8806 782.566 34.3003 782.257 34.6097C781.947 34.9192 781.528 35.093 781.09 35.093Z" fill="#009EA7"/>
<path d="M738.409 41.613H730.495C730.057 41.613 729.638 41.4391 729.328 41.1297C729.019 40.8203 728.845 40.4006 728.845 39.963C728.845 39.5254 729.019 39.1057 729.328 38.7963C729.638 38.4868 730.057 38.313 730.495 38.313H738.409C738.847 38.313 739.266 38.4868 739.576 38.7963C739.885 39.1057 740.059 39.5254 740.059 39.963C740.059 40.4006 739.885 40.8203 739.576 41.1297C739.266 41.4391 738.847 41.613 738.409 41.613Z" fill="#009EA7"/>
<path d="M752.426 48.133H730.494C730.056 48.133 729.637 47.9591 729.327 47.6497C729.018 47.3403 728.844 46.9206 728.844 46.483C728.844 46.0454 729.018 45.6257 729.327 45.3162C729.637 45.0068 730.056 44.833 730.494 44.833H752.426C752.864 44.833 753.283 45.0068 753.593 45.3162C753.902 45.6257 754.076 46.0454 754.076 46.483C754.076 46.9206 753.902 47.3403 753.593 47.6497C753.283 47.9591 752.864 48.133 752.426 48.133Z" fill="#009EA7"/>
<path d="M721.004 76.347C724.237 71.1452 722.642 64.3071 717.44 61.0736C712.238 57.8401 705.4 59.4357 702.167 64.6374C698.933 69.8391 700.529 76.6772 705.731 79.9108C710.932 83.1443 717.77 81.5487 721.004 76.347Z" fill="#090814"/>
<path d="M515.49 109.115H489.904C489.357 109.116 488.817 108.993 488.325 108.756C487.832 108.519 487.4 108.173 487.06 107.745C486.724 107.328 486.488 106.84 486.367 106.318C486.247 105.796 486.247 105.254 486.366 104.732C488.788 94.0416 488.651 82.9303 485.966 72.303C485.776 71.551 485.834 70.7575 486.132 70.0415C486.431 69.3254 486.953 68.7253 487.621 68.331C496.889 62.931 506.787 63.1 517.038 68.822C517.523 69.0864 517.941 69.458 518.261 69.9086C518.581 70.3592 518.794 70.8768 518.883 71.422C520.709 82.8703 520.777 94.5303 519.083 105.999C518.963 106.864 518.533 107.657 517.873 108.23C517.213 108.802 516.368 109.117 515.494 109.114L515.49 109.115Z" fill="#0F494C"/>
<path d="M503.535 84.294H494.735C494.248 84.294 493.782 84.1006 493.437 83.7565C493.093 83.4124 492.9 82.9457 492.9 82.459C492.9 81.9723 493.093 81.5056 493.437 81.1614C493.782 80.8173 494.248 80.624 494.735 80.624H503.535C504.022 80.624 504.488 80.8173 504.833 81.1614C505.177 81.5056 505.37 81.9723 505.37 82.459C505.37 82.9457 505.177 83.4124 504.833 83.7565C504.488 84.1006 504.022 84.294 503.535 84.294Z" fill="white"/>
<path d="M514.297 91.545H494.733C494.246 91.545 493.78 91.3517 493.435 91.0075C493.091 90.6634 492.898 90.1967 492.898 89.71C492.898 89.2233 493.091 88.7566 493.435 88.4125C493.78 88.0683 494.246 87.875 494.733 87.875H514.297C514.784 87.875 515.25 88.0683 515.595 88.4125C515.939 88.7566 516.132 89.2233 516.132 89.71C516.132 90.1967 515.939 90.6634 515.595 91.0075C515.25 91.3517 514.784 91.545 514.297 91.545Z" fill="white"/>
<path d="M460.766 178.646C463.999 173.444 462.404 166.606 457.202 163.373C452 160.139 445.162 161.735 441.929 166.936C438.695 172.138 440.291 178.976 445.493 182.21C450.694 185.443 457.532 183.848 460.766 178.646Z" fill="#090814"/>
<path d="M591.517 160.844H565.931C565.384 160.845 564.844 160.723 564.352 160.485C563.859 160.248 563.427 159.902 563.087 159.474C562.751 159.057 562.515 158.569 562.394 158.047C562.274 157.525 562.274 156.983 562.393 156.461C564.811 145.789 564.678 134.698 562.007 124.087C561.819 123.325 561.884 122.523 562.192 121.801C562.5 121.079 563.035 120.478 563.716 120.087C576.146 112.972 585.988 113.168 593.805 120.687C594.353 121.223 594.714 121.922 594.834 122.679C596.733 134.28 596.825 146.105 595.106 157.734C594.986 158.599 594.556 159.392 593.896 159.965C593.236 160.537 592.391 160.852 591.517 160.849V160.844Z" fill="#009EA7"/>
<path d="M581.171 136.826H572.371C571.884 136.826 571.418 136.633 571.073 136.289C570.729 135.944 570.536 135.478 570.536 134.991C570.536 134.504 570.729 134.038 571.073 133.693C571.418 133.349 571.884 133.156 572.371 133.156H581.171C581.658 133.156 582.124 133.349 582.469 133.693C582.813 134.038 583.006 134.504 583.006 134.991C583.006 135.478 582.813 135.944 582.469 136.289C582.124 136.633 581.658 136.826 581.171 136.826Z" fill="white"/>
<path d="M591.933 144.077H572.369C571.882 144.077 571.416 143.884 571.071 143.54C570.727 143.195 570.534 142.729 570.534 142.242C570.534 141.755 570.727 141.289 571.071 140.944C571.416 140.6 571.882 140.407 572.369 140.407H591.933C592.42 140.407 592.886 140.6 593.231 140.944C593.575 141.289 593.768 141.755 593.768 142.242C593.768 142.729 593.575 143.195 593.231 143.54C592.886 143.884 592.42 144.077 591.933 144.077Z" fill="white"/>
<path d="M673.976 209.674C670.577 231.374 654.558 250.662 628.468 256.164C615.565 258.763 602.23 258.276 589.55 254.744C576.59 251.102 564.735 244.302 555.047 234.955C543.787 224.178 536.102 211.454 529.581 198.857C528.565 196.891 531.937 195.812 532.962 197.793C543.351 217.872 557.934 240.09 583.946 249.742C609.392 259.183 636.823 254.479 652.975 240.304C662.178 232.253 668.241 221.21 670.094 209.125C670.396 207.191 674.281 207.724 673.976 209.674Z" fill="#949191"/>
<path d="M678.464 230.348L672.356 206.242L674.83 207.143C670.317 211.872 664.459 215.098 658.049 216.384C656.12 216.775 655.582 213.772 657.504 213.383C663.393 212.177 668.765 209.177 672.882 204.796C673.734 203.896 675.108 204.713 675.356 205.697L681.466 229.803C681.949 231.709 678.945 232.242 678.464 230.348Z" fill="#949191"/>
<path d="M603.391 289.046H577.804C577.257 289.047 576.717 288.925 576.225 288.687C575.732 288.45 575.3 288.104 574.96 287.676C574.624 287.259 574.387 286.771 574.267 286.249C574.147 285.727 574.147 285.185 574.266 284.663C576.694 273.948 576.55 262.811 573.848 252.163C573.663 251.427 573.716 250.652 573.998 249.948C574.279 249.244 574.777 248.647 575.418 248.242C584.27 242.758 593.908 242.93 604.886 248.766C605.385 249.029 605.817 249.403 606.147 249.86C606.478 250.317 606.698 250.845 606.791 251.401C608.609 262.835 608.673 274.48 606.98 285.934C606.86 286.799 606.43 287.592 605.77 288.165C605.11 288.737 604.265 289.051 603.391 289.049V289.046Z" fill="#009EA7"/>
<path d="M591.437 265.032H582.637C582.15 265.032 581.684 264.839 581.34 264.495C580.995 264.15 580.802 263.684 580.802 263.197C580.802 262.71 580.995 262.244 581.34 261.899C581.684 261.555 582.15 261.362 582.637 261.362H591.437C591.924 261.362 592.39 261.555 592.735 261.899C593.079 262.244 593.272 262.71 593.272 263.197C593.272 263.684 593.079 264.15 592.735 264.495C592.39 264.839 591.924 265.032 591.437 265.032Z" fill="white"/>
<path d="M602.199 272.284H582.635C582.148 272.284 581.682 272.091 581.337 271.747C580.993 271.402 580.8 270.936 580.8 270.449C580.8 269.962 580.993 269.496 581.337 269.151C581.682 268.807 582.148 268.614 582.635 268.614H602.199C602.686 268.614 603.152 268.807 603.497 269.151C603.841 269.496 604.034 269.962 604.034 270.449C604.034 270.936 603.841 271.402 603.497 271.747C603.152 272.091 602.686 272.284 602.199 272.284Z" fill="white"/>
<path d="M689.07 52.8221C676.737 34.8523 655.899 22.0101 633.596 23.5386C623.129 24.2143 613.08 27.8983 604.657 34.1479C596.332 40.5888 590.263 49.5015 587.319 59.6067C583.598 71.6578 583.472 84.5249 584.176 97.0092C584.287 98.9567 587.335 99.0773 587.223 97.1156C586.102 77.2222 587.206 54.464 602.643 39.8327C617.743 25.5215 640.705 22.981 659.349 31.3612C670.272 36.3802 679.613 44.291 686.363 54.2375C687.461 55.8388 690.174 54.4406 689.067 52.8248L689.07 52.8221Z" fill="#949191"/>
<path d="M684.94 32.2091L688.737 56.785L690.663 54.9893C684.661 52.3992 678.007 51.7185 671.605 53.0396C669.677 53.4336 670.353 56.4069 672.274 56.0162C678.167 54.8247 684.284 55.4864 689.786 57.9105C690.922 58.4059 691.867 57.1172 691.712 56.1148L687.917 31.5376C687.617 29.5941 684.643 30.2777 684.94 32.2091Z" fill="#949191"/>
<path d="M628.183 52.094L602.618 53.153C602.072 53.1771 601.527 53.077 601.024 52.8604C600.522 52.6437 600.075 52.316 599.718 51.902C599.365 51.499 599.109 51.0213 598.967 50.5049C598.825 49.9884 598.802 49.4466 598.9 48.92C600.862 38.2224 600.29 27.2139 597.231 16.777C596.997 15.9795 597.045 15.1255 597.369 14.36C597.693 13.5944 598.272 12.9644 599.007 12.577C609.478 7.13702 619.29 6.861 628.167 11.756C628.632 12.0088 629.037 12.36 629.353 12.7852C629.668 13.2104 629.888 13.6994 629.995 14.218C632.306 25.6066 632.86 37.2818 631.638 48.838C631.552 49.7065 631.155 50.5146 630.52 51.1131C629.885 51.7116 629.055 52.0601 628.183 52.094Z" fill="#0F494C"/>
<path d="M627.102 35.362L607.555 36.172C607.314 36.182 607.074 36.1445 606.848 36.0615C606.621 35.9786 606.414 35.8519 606.236 35.6887C606.059 35.5255 605.915 35.329 605.814 35.1104C605.713 34.8918 605.655 34.6553 605.645 34.4145C605.636 34.1737 605.673 33.9333 605.756 33.7071C605.839 33.4808 605.966 33.2731 606.129 33.0958C606.292 32.9185 606.489 32.775 606.707 32.6737C606.926 32.5723 607.162 32.515 607.403 32.505L626.95 31.695C627.191 31.685 627.431 31.7226 627.657 31.8055C627.884 31.8884 628.091 32.0151 628.269 32.1783C628.446 32.3415 628.589 32.538 628.691 32.7567C628.792 32.9753 628.85 33.2117 628.859 33.4525C628.869 33.6933 628.832 33.9337 628.749 34.16C628.666 34.3862 628.539 34.5939 628.376 34.7713C628.213 34.9486 628.017 35.092 627.798 35.1934C627.579 35.2947 627.343 35.352 627.102 35.362Z" fill="white"/>
<path d="M626.836 28.931L607.289 29.741C607.048 29.751 606.808 29.7134 606.582 29.6305C606.355 29.5476 606.148 29.4209 605.97 29.2577C605.612 28.9281 605.4 28.4698 605.379 27.9835C605.369 27.7427 605.407 27.5023 605.49 27.2761C605.573 27.0498 605.7 26.8421 605.863 26.6648C606.192 26.3067 606.651 26.0942 607.137 26.074L626.684 25.264C627.17 25.2438 627.645 25.4177 628.003 25.7473C628.361 26.0769 628.573 26.5352 628.593 27.0215C628.614 27.5078 628.44 27.9821 628.11 28.3402C627.781 28.6983 627.322 28.9108 626.836 28.931Z" fill="white"/>
</svg>
